<svg xmlns="http://www.w3.org/2000/svg" width="2998" height="3096" fill="none" viewBox="0 0 2998 3096">
  <g clip-path="url(#a)">
    <path fill="#fff" fill-opacity=".99" d="M0 0h2998v3096H0z"/>
    <path fill="#A1D0E2" fill-rule="evenodd" d="M360 684.5C360 506 686.1 136 1476.5 148c401.5 0 1186 132.329 1186 600.329 0 196.5-395.55 546.571-1186 538.171-372.17-21.83-1116.5-172.8-1116.5-602Z" clip-rule="evenodd"/>
    <path fill="#8FB7C6" d="M1511 1284c729 13.5 1151.5-339.17 1151.5-535.671C2662.5 280.328 1846.5 175 1804 175l-293 1109Z"/>
    <path fill="#0175A3" d="M357.5 1649.5V930c293.2 362.4 896.5 442 1158.5 442v829c-791.6 8.4-1105.5-365.67-1158.5-551.5Z"/>
    <path fill="#136485" d="M2674 1649.5V930c-293.2 362.4-897 442-1158 442v829c791.6 8.4 1105-365.67 1158-551.5Z"/>
    <path fill="#12C347" d="M346 2550.5v-792C653.5 2273 1242.5 2273 1504.5 2273l4.5 822c-791.6 8.4-1110-358.67-1163-544.5Z"/>
    <path fill="#1CAF47" d="M2662.5 2550.5v-742c-254.5 410.5-897 464.5-1158 464.5v822.5c791.6 8.4 1105-359.17 1158-545Z"/>
    <path fill="#fff" fill-opacity=".99" stroke="#424242" stroke-width="35" d="M496.955 2993.75v-13.69l-13.289-3.3c-48.291-11.97-94.253-31.07-137.049-56.86l-11.726-7.07-9.681 9.68-31.821 31.82c-7.343 7.35-17.002 11.35-27.419 11.35-10.417 0-20.074-4-27.417-11.35l-12.375 12.38 12.374-12.38-97.886-97.88c-7.341-7.34-11.345-17-11.345-27.42 0-10.45 4.022-20.13 11.31-27.38l.018-.02.017-.02 31.822-31.82 9.68-9.68-7.067-11.73c-25.784-42.78-44.831-88.75-56.869-137.06l-3.305-13.27H56.292c-21.36.04-38.792-17.37-38.792-38.77v-138.5c0-21.39 17.434-38.83 38.824-38.83h58.619l3.294-13.28c11.975-48.3 31.076-94.32 56.859-137.04l7.078-11.73-9.687-9.69-31.82-31.82h-.001c-15.138-15.14-15.112-39.77-.017-54.82l.009-.01.008-.01 97.944-97.94h.001c15.14-15.14 39.765-15.12 54.819-.02l.008.01.009.01 31.823 31.82 9.681 9.68 11.726-7.07c42.785-25.78 88.75-44.83 137.065-56.87l13.271-3.3v-58.55c0-21.39 17.434-38.82 38.824-38.82h138.504c21.39 0 38.824 17.43 38.824 38.82v58.62l13.289 3.3c48.29 11.97 94.253 31.07 137.049 56.86l11.726 7.07 9.681-9.68 31.821-31.82.008-.01.008-.01c15.067-15.11 39.737-15.11 54.803 0l.009.01.008.01 97.943 97.94c7.34 7.34 11.35 17 11.35 27.42 0 10.44-4.02 20.13-11.31 27.38l-.02.02-.02.02-31.82 31.82-9.68 9.68 7.07 11.73c25.78 42.78 44.83 88.75 56.86 137.06l3.31 13.27h58.61c21.38 0 38.82 17.44 38.82 38.83v138.5c0 21.39-17.44 38.82-38.82 38.82h-58.63l-3.29 13.29c-11.97 48.29-31.07 94.26-56.86 137.05l-7.07 11.73 9.68 9.68 31.82 31.82c7.34 7.34 11.35 17 11.35 27.42 0 10.42-4.01 20.07-11.35 27.42l-97.943 97.94c-7.343 7.34-17.002 11.35-27.419 11.35-10.445 0-20.134-4.02-27.382-11.31l-.018-.02-.017-.02-31.821-31.82-9.681-9.68-11.726 7.07c-42.785 25.78-88.752 44.83-137.069 56.87l-13.269 3.3v58.57c-.097 21.24-17.55 38.68-38.882 38.68H535.777c-21.388 0-38.822-17.43-38.822-38.82v-44.93Z"/>
    <path fill="#413E3E" stroke="#424242" d="M610.435 2149.17c-187.489 0-340.091 152.54-340.091 340.09 0 187.49 152.544 340.09 340.091 340.09 187.489 0 340.09-152.54 340.09-340.09 0-187.49-152.601-340.09-340.09-340.09Zm0 714.61c-206.477 0-374.514-167.98-374.514-374.52 0-206.48 167.977-374.51 374.514-374.51 206.477 0 374.514 167.97 374.514 374.51 0 206.48-168.037 374.52-374.514 374.52Z"/>
    <path fill="#413E3E" stroke="#424242" d="M556.592 2627.44a17.182 17.182 0 0 1-17.212-17.21v-150.08c0-41.19-33.523-74.71-74.711-74.71-41.191 0-74.714 33.52-74.714 74.71v150.08c0 9.53-7.686 17.21-17.212 17.21a17.183 17.183 0 0 1-17.211-17.21v-150.08c0-60.17 48.956-109.13 109.137-109.13 60.178 0 109.134 48.96 109.134 109.13v150.08c0 9.53-7.688 17.21-17.211 17.21Z"/>
    <path fill="#413E3E" stroke="#424242" d="M556.592 2552.46H372.803a17.182 17.182 0 0 1-17.211-17.21c0-9.52 7.686-17.21 17.211-17.21h183.789c9.523 0 17.211 7.69 17.211 17.21 0 9.47-7.69 17.21-17.211 17.21Zm291.474 74.98a17.183 17.183 0 0 1-17.212-17.21v-241.94c0-9.52 7.687-17.21 17.212-17.21 9.525 0 17.212 7.69 17.212 17.21v241.94c0 9.53-7.687 17.21-17.212 17.21Zm-193.262-17.21c.058 9.52-7.684 17.21-17.212 17.21a17.183 17.183 0 0 1-17.212-17.21v-241.94c0-9.52 7.687-17.21 17.212-17.21 9.525 0 17.212 7.69 17.212 17.21v241.94Z"/>
    <path fill="#413E3E" stroke="#424242" d="M654.864 2471.55v.5h51.686c23.832 0 43.243-19.41 43.243-43.24 0-23.84-19.411-43.25-43.243-43.25h-51.686v85.99Zm51.686 34.92h-68.898a17.183 17.183 0 0 1-17.212-17.21v-120.97c0-9.52 7.687-17.21 17.212-17.21h68.898c42.88 0 77.726 34.84 77.726 77.73 0 42.82-34.903 77.66-77.726 77.66Z"/>
    <ellipse cx="2934.62" cy="721.617" fill="#424242" rx="52.198" ry="50.614"/>
    <ellipse cx="2547.61" cy="500.36" fill="#424242" rx="52.198" ry="50.614"/>
    <ellipse cx="2945.8" cy="282.718" fill="#424242" rx="52.198" ry="50.614"/>
    <ellipse cx="2547.61" cy="50.614" fill="#424242" rx="52.198" ry="50.614"/>
    <path stroke="#7F7F7F" stroke-width="25" d="m2146.43 1621.47-387.76-669.918h791.92l-404.16 669.918Z"/>
    <ellipse cx="2155.38" cy="279.826" fill="#424242" rx="52.198" ry="50.614"/>
    <path stroke="#424242" stroke-width="25" d="m2159.85 725.594 791.92-445.045m0 0-404.16 669.918m404.16-669.918h-791.92l387.76 669.918m0 0V50.253"/>
    <path stroke="#7F7F7F" stroke-width="25" d="m1748.23 941.79 392.23-225.595 420.2 240.057L2545 1392.98l-400.06 227.04-396.71-227.04V941.79Z"/>
    <ellipse cx="2533.44" cy="1392.62" fill="#7F7F7F" rx="52.198" ry="50.614"/>
    <path stroke="#424242" stroke-width="25" d="m2149.41 270.787 396.7-220.173 400.06 220.173v451.192l-400.06 227.042-396.7-227.042V270.787Z"/>
    <ellipse cx="2547.61" cy="949.383" fill="#424242" rx="52.198" ry="50.614"/>
    <ellipse cx="2146.43" cy="1620.39" fill="#7F7F7F" rx="52.198" ry="50.614"/>
    <ellipse cx="1754.2" cy="1392.62" fill="#7F7F7F" rx="52.198" ry="50.614"/>
    <ellipse cx="1754.2" cy="950.829" fill="#7F7F7F" rx="52.198" ry="50.614"/>
    <ellipse cx="2155.38" cy="721.617" fill="#424242" rx="52.198" ry="50.614"/>
  </g>
  <defs>
    <clipPath id="a">
      <path fill="#fff" d="M0 0h2998v3096H0z"/>
    </clipPath>
  </defs>
</svg>
