<?xml version="1.0" encoding="UTF-8" standalone="no"?>
<svg
   viewBox="0 0 104.29648 108.66241"
   version="1.1"
   id="svg53"
   sodipodi:docname="tree_nega_cropped.svg"
   width="104.29648"
   height="108.66241"
   inkscape:version="1.3.1 (9b9bdc1480, 2023-11-25, custom)"
   xmlns:inkscape="http://www.inkscape.org/namespaces/inkscape"
   xmlns:sodipodi="http://sodipodi.sourceforge.net/DTD/sodipodi-0.dtd"
   xmlns="http://www.w3.org/2000/svg"
   xmlns:svg="http://www.w3.org/2000/svg"
   xmlns:rdf="http://www.w3.org/1999/02/22-rdf-syntax-ns#"
   xmlns:cc="http://creativecommons.org/ns#"
   xmlns:dc="http://purl.org/dc/elements/1.1/">
  <sodipodi:namedview
     id="namedview53"
     pagecolor="#505050"
     bordercolor="#ffffff"
     borderopacity="1"
     inkscape:showpageshadow="0"
     inkscape:pageopacity="0"
     inkscape:pagecheckerboard="1"
     inkscape:deskcolor="#505050"
     showguides="true"
     inkscape:zoom="4"
     inkscape:cx="-2.625"
     inkscape:cy="15.125"
     inkscape:window-width="1696"
     inkscape:window-height="1286"
     inkscape:window-x="402"
     inkscape:window-y="32"
     inkscape:window-maximized="0"
     inkscape:current-layer="Layer_2">
    <sodipodi:guide
       position="32.728645,108.66171"
       orientation="0,-1"
       id="guide54"
       inkscape:locked="false" />
    <sodipodi:guide
       position="36.307326,0.0038149343"
       orientation="0,-1"
       id="guide55"
       inkscape:locked="false" />
    <sodipodi:guide
       position="-0.0021477213,62.106087"
       orientation="1,0"
       id="guide56"
       inkscape:locked="false" />
    <sodipodi:guide
       position="104.30145,68.375258"
       orientation="1,0"
       id="guide57"
       inkscape:locked="false" />
  </sodipodi:namedview>
  <defs
     id="defs1">
    <style
       id="style1">.cls-1{fill:none;}.cls-2{fill:#fff;}.cls-3{clip-path:url(#clip-path);}</style>
    <clipPath
       id="clip-path">
      <path
         class="cls-1"
         d="m 51.26,26.63 a 3.89,3.89 0 0 0 -1.41,5 2.71,2.71 0 0 0 0.21,0.37 3.39,3.39 0 0 0 0.61,0.74 3.85,3.85 0 0 0 2.67,1.07 3.89,3.89 0 1 0 -2.08,-7.17"
         id="path1" />
    </clipPath>
    <clipPath
       clipPathUnits="userSpaceOnUse"
       id="clipPath58">
      <rect
         style="fill:#000000"
         id="rect59"
         width="104.29648"
         height="108.66241"
         x="26.815014"
         y="25.997959"
         ry="0" />
    </clipPath>
  </defs>
  <title
     id="title1">tree_logo_nega</title>
  <g
     id="Layer_2"
     data-name="Layer 2"
     transform="translate(-26.815014,-25.997959)">
    <g
       id="Layer_3"
       data-name="Layer 3"
       clip-path="url(#clipPath58)">
      <rect
         class="cls-1"
         width="157.14"
         height="160.72"
         id="rect1"
         x="0"
         y="0" />
      <path
         class="cls-2"
         d="M 80.13,117.08 A 48.84,48.84 0 0 1 74.35,116.74 48.06,48.06 0 0 1 53.1,29.22 l 0.78,1.14 a 46.65,46.65 0 1 0 72.66,34.45 l 1.37,-0.13 a 48.76,48.76 0 0 1 -0.15,10 48.08,48.08 0 0 1 -47.63,42.37"
         id="path2" />
      <path
         class="cls-2"
         d="m 123.37,65.41 a 3.88,3.88 0 1 1 4.33,3.38 3.88,3.88 0 0 1 -4.33,-3.38"
         id="path3" />
      <path
         class="cls-2"
         d="M 55.41,33.2 A 3.89,3.89 0 1 0 50.06,32 3.89,3.89 0 0 0 55.41,33.21"
         id="path4" />
      <path
         class="cls-2"
         d="m 75.83,131.66 c 0,1.74 -8.87,3.09 -19.79,3 -10.92,-0.09 -19.76,-1.52 -19.75,-3.25 0.01,-1.73 8.87,-3.08 19.79,-3 10.92,0.08 19.76,1.52 19.75,3.25"
         id="path5" />
      <path
         class="cls-2"
         d="m 93.2,102.06 c -0.12,0.08 -0.26,0.21 -0.47,0.35 l -0.33,0.25 -0.43,0.27 a 11.55,11.55 0 0 1 -2.47,1.16 c -0.78,0.27 -1.38,0.41 -1.38,0.41 l -0.63,0.18 c -0.4,0.1 -1,0.25 -1.68,0.37 a 36.15,36.15 0 0 1 -5.27,0.48 c -1.94,0 -3.9,0 -5.39,0 l -2.57,-0.06 h -0.13 -0.06 a 13,13 0 0 0 -0.83,-4.59 c -0.72,-1.72 -3.4,-3.7 -6.33,-5.44 V 95.31 L 65.17,95.25 65,95.19 64.86,95.1 64.7,95 a 1.77,1.77 0 0 1 -0.36,-0.33 l -0.2,-0.23 c 0,-0.09 -0.1,-0.18 -0.16,-0.27 a 1.69,1.69 0 0 1 0,-1.4 3.86,3.86 0 0 1 1.16,-1.5 6.28,6.28 0 0 1 1.73,-1 h 0.11 v 0 h 0.06 l 0.24,-0.07 0.48,-0.14 c 0.31,-0.1 0.57,-0.13 0.83,-0.2 1,-0.21 1.78,-0.29 1.78,-0.29 l 0.55,-0.09 1.2,-0.19 c 0.87,-0.12 1.74,-0.24 1.66,-0.25 1.45,-0.27 2.33,-0.61 0,-0.64 -0.69,0 -1.53,0 -2.2,0 -0.67,0 -1.17,0 -1.17,0 0,0 -0.76,0.07 -1.92,0.3 l -0.93,0.21 -0.48,0.15 -0.25,0.07 h -0.13 -0.06 -0.1 a 7.7,7.7 0 0 0 -2.09,1.19 5.11,5.11 0 0 0 -1.55,2 4.31,4.31 0 0 0 -0.19,0.61 3.36,3.36 0 0 0 -0.06,0.63 3.72,3.72 0 0 0 0.08,0.57 c -1.95,-1 -13.29,-7 -15.66,-8.72 A 34.29,34.29 0 0 1 41.15,80 23.09,23.09 0 0 1 39.56,77.93 C 39.39,77.66 39.25,77.46 39.16,77.32 39.07,77.18 39.03,77.1 39.03,77.1 a 19.43,19.43 0 0 1 -1.67,-3 20.74,20.74 0 0 1 -1,-3.06 c -0.18,-0.69 -0.29,-1.32 -0.4,-1.82 a 3.28,3.28 0 0 0 -0.26,-1 c -0.09,-0.12 -0.18,0 -0.26,0.43 a 7.31,7.31 0 0 0 -0.1,0.93 c 0,0.2 0,0.43 0,0.67 0,0.24 0,0.53 0.05,0.83 a 14.57,14.57 0 0 0 0.34,2.26 c 0.09,0.38 0.19,0.76 0.3,1.13 0.11,0.37 0.23,0.71 0.36,1 l 0.36,0.89 q 0.18,0.41 0.33,0.69 a 4.1,4.1 0 0 0 0.22,0.46 l 0.09,0.16 0.14,0.24 c 0.1,0.16 0.24,0.39 0.43,0.67 a 24.71,24.71 0 0 0 1.7,2.28 36.18,36.18 0 0 0 6.27,5.79 c 2.49,1.85 20.71,10.64 23.48,15.63 2.95,5.31 -9.75,19.64 -16.81,29.24 l 10.82,0.05 c 0,0 8.8,-16.29 9,-25.07 h 0.07 0.11 l 2.51,0.06 c 1.48,0 3.43,0.1 5.38,0 a 38.19,38.19 0 0 0 5.37,-0.47 20.08,20.08 0 0 0 2.41,-0.55 15.73,15.73 0 0 0 2.21,-0.93 8.93,8.93 0 0 0 1.86,-1.26 6.63,6.63 0 0 0 0.88,-0.92 2.35,2.35 0 0 0 0.34,-0.58 c 0,-0.1 -0.09,-0.08 -0.33,0.08"
         id="path6" />
      <path
         class="cls-2"
         d="m 70.52,85.84 c -1.41,-7.53 5.89,-11.85 13.18,-13 -0.52,6.06 -6.15,13.79 -13.18,13"
         id="path7" />
      <path
         class="cls-2"
         d="m 90.05,107.07 c 4.59,3.18 14.78,2.75 16,-4 -4.86,0.45 -11.91,2.6 -16,4"
         id="path8" />
      <path
         class="cls-2"
         d="m 35.73,76.23 c -3.56,1.57 -7.69,-0.59 -8.91,-4.56 3.35,0.38 7.34,1 8.81,4.34"
         id="path9" />
      <path
         class="cls-2"
         d="m 80.61,86.18 c 3.55,1.58 7.69,-0.56 8.92,-4.53 -3.35,0.37 -7.34,1 -8.82,4.31"
         id="path10" />
      <path
         class="cls-2"
         d="M 45.79,82.3 C 42.66,78.15 42,70.87 45.4,66.52 c -0.27,3.64 7.91,15.09 0.39,15.78"
         id="path11" />
      <path
         class="cls-2"
         d="m 40.92,85.18 c -3.17,1.93 -7.78,1.65 -7.08,7.73 3.17,-2.9 7.77,-1.66 7.08,-7.73"
         id="path12" />
      <path
         class="cls-2"
         d="m 76.56,89.27 c 4.37,-0.21 7.27,2.72 7.73,7.09 -3.64,0.22 -6,-4.89 -7.73,-7.09"
         id="path13" />
      <path
         class="cls-2"
         d="m 47.61,59.89 a 1.46,1.46 0 0 0 -0.41,-0.23 4.46,4.46 0 0 0 -0.61,-0.19 5.31,5.31 0 0 0 -0.63,-0.14 1.48,1.48 0 0 0 -0.47,0 0.59,0.59 0 0 0 -0.33,0.15 0.66,0.66 0 0 0 -0.19,0.34 0.65,0.65 0 0 0 0,0.39 0.59,0.59 0 0 0 0.21,0.3 1.69,1.69 0 0 0 0.43,0.23 6.1,6.1 0 0 0 0.6,0.19 5.36,5.36 0 0 0 0.62,0.13 1.43,1.43 0 0 0 0.46,0 0.63,0.63 0 0 0 0.34,-0.15 0.69,0.69 0 0 0 0.2,-0.35 0.7,0.7 0 0 0 0,-0.38 0.54,0.54 0 0 0 -0.22,-0.3 m -0.89,-0.9 a 2.66,2.66 0 0 1 1.29,0.66 1.06,1.06 0 0 1 0.2,1 1,1 0 0 1 -0.68,0.79 2.63,2.63 0 0 1 -1.45,-0.07 2.58,2.58 0 0 1 -1.29,-0.65 1.21,1.21 0 0 1 0.49,-1.83 2.69,2.69 0 0 1 1.44,0.07"
         id="path14" />
      <path
         class="cls-2"
         d="m 49.42,56.76 -0.67,1.83 -0.35,-0.13 0.26,-0.7 -2.26,-0.84 -0.26,0.7 -0.31,-0.11 c 0,-0.1 0.06,-0.2 0.09,-0.32 a 0.9,0.9 0 0 0 0,-0.27 L 45.84,56.7 a 0.49,0.49 0 0 0 -0.21,-0.15 l 0.13,-0.36 3,1.13 0.26,-0.69 z"
         id="path15" />
      <path
         class="cls-2"
         d="M 49.9,54 A 2,2 0 0 0 49.53,53.7 C 49.38,53.61 49.2,53.51 48.97,53.4 a 4.48,4.48 0 0 0 -0.59,-0.25 1.42,1.42 0 0 0 -0.46,-0.1 0.65,0.65 0 0 0 -0.35,0.09 0.63,0.63 0 0 0 -0.25,0.3 0.67,0.67 0 0 0 -0.08,0.38 0.61,0.61 0 0 0 0.15,0.33 2.07,2.07 0 0 0 0.37,0.31 c 0.17,0.1 0.35,0.2 0.56,0.3 0.21,0.1 0.42,0.19 0.58,0.25 a 1.29,1.29 0 0 0 0.46,0.09 0.6,0.6 0 0 0 0.36,-0.07 0.74,0.74 0 0 0 0.26,-0.31 0.69,0.69 0 0 0 0.07,-0.38 A 0.61,0.61 0 0 0 49.9,54 m -0.71,-1 a 2.61,2.61 0 0 1 1.15,0.9 1.21,1.21 0 0 1 -0.83,1.7 2.67,2.67 0 0 1 -1.4,-0.35 2.6,2.6 0 0 1 -1.11,-0.9 1,1 0 0 1 0,-1.05 1,1 0 0 1 0.83,-0.65 2.74,2.74 0 0 1 1.4,0.34"
         id="path16" />
      <path
         class="cls-2"
         d="m 52.27,51.31 -1,1.67 -0.32,-0.19 0.39,-0.64 -2.07,-1.25 -0.39,0.64 -0.28,-0.17 a 2,2 0 0 0 0.14,-0.29 1,1 0 0 0 0.08,-0.26 v -0.23 l -0.18,-0.2 0.19,-0.32 2.78,1.68 0.38,-0.63 z"
         id="path17" />
      <path
         class="cls-2"
         d="m 53.25,48.73 a 1.63,1.63 0 0 0 -0.3,-0.37 6.3,6.3 0 0 0 -0.49,-0.4 5,5 0 0 0 -0.53,-0.36 1.57,1.57 0 0 0 -0.44,-0.18 0.62,0.62 0 0 0 -0.36,0 0.67,0.67 0 0 0 -0.3,0.24 0.73,0.73 0 0 0 -0.15,0.36 0.61,0.61 0 0 0 0.09,0.36 1.24,1.24 0 0 0 0.31,0.37 5.08,5.08 0 0 0 0.48,0.4 c 0.21,0.15 0.38,0.27 0.53,0.36 a 2,2 0 0 0 0.43,0.18 0.63,0.63 0 0 0 0.36,0 0.67,0.67 0 0 0 0.32,-0.25 0.77,0.77 0 0 0 0.15,-0.36 0.7,0.7 0 0 0 -0.1,-0.36 m -0.5,-1.17 a 2.58,2.58 0 0 1 1,1.1 1,1 0 0 1 -0.19,1 1.06,1.06 0 0 1 -0.94,0.49 2.61,2.61 0 0 1 -1.31,-0.6 2.78,2.78 0 0 1 -1,-1.09 1.2,1.2 0 0 1 1.14,-1.45 2.69,2.69 0 0 1 1.3,0.6"
         id="path18" />
      <path
         class="cls-2"
         d="m 56.1,46.5 -1.31,1.44 -0.27,-0.24 0.5,-0.56 -1.79,-1.62 -0.51,0.56 -0.24,-0.22 a 1.79,1.79 0 0 0 0.2,-0.26 0.66,0.66 0 0 0 0.12,-0.24 v -0.24 l -0.14,-0.22 0.25,-0.28 2.41,2.17 0.49,-0.54 z"
         id="path19" />
      <path
         class="cls-2"
         d="m 57.54,44.15 a 2.14,2.14 0 0 0 -0.22,-0.42 l -0.41,-0.49 a 6.27,6.27 0 0 0 -0.46,-0.45 1.88,1.88 0 0 0 -0.39,-0.26 0.6,0.6 0 0 0 -0.71,0.14 0.69,0.69 0 0 0 -0.21,0.32 0.68,0.68 0 0 0 0,0.37 1.48,1.48 0 0 0 0.23,0.42 5.6,5.6 0 0 0 0.41,0.49 c 0.17,0.18 0.32,0.33 0.44,0.44 a 1.47,1.47 0 0 0 0.39,0.26 0.62,0.62 0 0 0 0.39,0.03 0.64,0.64 0 0 0 0.35,-0.19 0.69,0.69 0 0 0 0.21,-0.32 0.59,0.59 0 0 0 0,-0.37 m -0.27,-1.24 a 2.66,2.66 0 0 1 0.71,1.29 1.08,1.08 0 0 1 -0.39,1 1.06,1.06 0 0 1 -1,0.3 3.52,3.52 0 0 1 -1.91,-2.09 1.06,1.06 0 0 1 0.38,-1 1,1 0 0 1 1,-0.29 2.68,2.68 0 0 1 1.17,0.83"
         id="path20" />
      <path
         class="cls-2"
         d="M 60,42.19 A 1.36,1.36 0 0 0 59.81,41.75 C 59.72,41.6 59.6,41.43 59.45,41.23 a 3.64,3.64 0 0 0 -0.41,-0.49 1.25,1.25 0 0 0 -0.37,-0.3 0.66,0.66 0 0 0 -0.35,-0.08 0.62,0.62 0 0 0 -0.36,0.15 0.67,0.67 0 0 0 -0.24,0.3 0.65,0.65 0 0 0 0,0.37 1.52,1.52 0 0 0 0.2,0.44 c 0.1,0.17 0.22,0.34 0.35,0.52 0.13,0.18 0.29,0.37 0.41,0.49 a 1.39,1.39 0 0 0 0.36,0.29 0.69,0.69 0 0 0 0.35,0.1 0.67,0.67 0 0 0 0.37,-0.16 0.63,0.63 0 0 0 0.25,-0.3 0.58,0.58 0 0 0 0,-0.37 m -0.15,-1.26 a 2.61,2.61 0 0 1 0.61,1.32 1.19,1.19 0 0 1 -1.51,1.13 3.42,3.42 0 0 1 -1.7,-2.26 1,1 0 0 1 0.47,-0.93 1,1 0 0 1 1,-0.2 2.71,2.71 0 0 1 1.09,0.94"
         id="path21" />
      <path
         class="cls-2"
         d="M 64.13,39.61 A 2.42,2.42 0 0 0 64.01,39.15 C 63.94,38.99 63.85,38.8 63.73,38.58 a 4.9,4.9 0 0 0 -0.34,-0.55 1.32,1.32 0 0 0 -0.32,-0.34 0.67,0.67 0 0 0 -0.34,-0.14 0.69,0.69 0 0 0 -0.37,0.1 0.68,0.68 0 0 0 -0.29,0.26 0.74,0.74 0 0 0 -0.07,0.37 1.41,1.41 0 0 0 0.13,0.46 4.8,4.8 0 0 0 0.27,0.57 c 0.13,0.22 0.23,0.4 0.33,0.54 a 1.31,1.31 0 0 0 0.32,0.34 0.61,0.61 0 0 0 0.34,0.15 0.66,0.66 0 0 0 0.38,-0.1 0.64,0.64 0 0 0 0.29,-0.27 0.6,0.6 0 0 0 0.07,-0.36 m 0,-1.27 a 2.56,2.56 0 0 1 0.41,1.4 1.06,1.06 0 0 1 -0.6,0.85 1,1 0 0 1 -1,0 2.61,2.61 0 0 1 -1,-1.1 2.66,2.66 0 0 1 -0.41,-1.38 1.2,1.2 0 0 1 1.66,-0.91 2.69,2.69 0 0 1 0.94,1.09"
         id="path22" />
      <path
         class="cls-2"
         d="m 67.65,38.77 -1.79,0.77 -0.15,-0.34 0.69,-0.3 -1,-2.22 -0.69,0.3 -0.13,-0.3 0.29,-0.15 a 0.8,0.8 0 0 0 0.21,-0.18 l 0.1,-0.21 a 0.41,0.41 0 0 0 0,-0.26 l 0.35,-0.14 1.28,3 0.67,-0.29 z"
         id="path23" />
      <path
         class="cls-2"
         d="m 69.93,37.25 a 2.06,2.06 0 0 0 0,-0.48 5.93,5.93 0 0 0 -0.17,-0.61 4.91,4.91 0 0 0 -0.22,-0.6 1.38,1.38 0 0 0 -0.26,-0.4 A 0.64,0.64 0 0 0 69,35 a 0.67,0.67 0 0 0 -0.39,0 0.68,0.68 0 0 0 -0.33,0.2 0.61,0.61 0 0 0 -0.13,0.34 1.37,1.37 0 0 0 0,0.48 c 0,0.19 0.1,0.4 0.16,0.61 0.06,0.21 0.15,0.44 0.22,0.6 a 1.38,1.38 0 0 0 0.25,0.39 0.59,0.59 0 0 0 0.3,0.21 0.69,0.69 0 0 0 0.4,0 0.67,0.67 0 0 0 0.33,-0.21 0.55,0.55 0 0 0 0.14,-0.34 M 70.2,36 a 2.58,2.58 0 0 1 0.14,1.45 1.05,1.05 0 0 1 -0.75,0.72 1.07,1.07 0 0 1 -1,-0.15 2.63,2.63 0 0 1 -0.71,-1.26 2.57,2.57 0 0 1 -0.15,-1.44 1,1 0 0 1 0.76,-0.72 1,1 0 0 1 1,0.15 2.56,2.56 0 0 1 0.71,1.25"
         id="path24" />
      <path
         class="cls-2"
         d="m 73,36.49 a 1.49,1.49 0 0 0 0,-0.49 4.83,4.83 0 0 0 -0.11,-0.62 5,5 0 0 0 -0.16,-0.62 1.72,1.72 0 0 0 -0.21,-0.43 0.66,0.66 0 0 0 -0.29,-0.22 0.64,0.64 0 0 0 -0.39,0 0.72,0.72 0 0 0 -0.35,0.17 0.74,0.74 0 0 0 -0.17,0.33 1.53,1.53 0 0 0 0,0.48 5.29,5.29 0 0 0 0.1,0.62 5.75,5.75 0 0 0 0.16,0.61 1.38,1.38 0 0 0 0.21,0.42 0.64,0.64 0 0 0 0.28,0.24 0.67,0.67 0 0 0 0.4,0 0.68,0.68 0 0 0 0.35,-0.17 0.57,0.57 0 0 0 0.16,-0.33 m 0.39,-1.21 a 2.64,2.64 0 0 1 0,1.46 1.21,1.21 0 0 1 -1.85,0.39 2.62,2.62 0 0 1 -0.59,-1.31 2.61,2.61 0 0 1 0,-1.45 1,1 0 0 1 0.83,-0.65 1,1 0 0 1 1,0.25 2.62,2.62 0 0 1 0.59,1.31"
         id="path25" />
      <path
         class="cls-2"
         d="m 76.62,36.67 -1.94,0.23 v -0.36 l 0.74,-0.09 -0.29,-2.4 -0.74,0.09 v -0.33 l 0.32,-0.06 a 0.81,0.81 0 0 0 0.26,-0.11 l 0.15,-0.17 a 0.42,0.42 0 0 0 0,-0.26 h 0.38 l 0.38,3.22 0.73,-0.08 z"
         id="path26" />
      <path
         class="cls-2"
         d="m 79.23,35.86 a 1.63,1.63 0 0 0 0.1,-0.47 4.23,4.23 0 0 0 0,-0.64 5.37,5.37 0 0 0 0,-0.63 1.39,1.39 0 0 0 -0.13,-0.46 0.67,0.67 0 0 0 -0.24,-0.28 0.68,0.68 0 0 0 -0.37,-0.08 0.71,0.71 0 0 0 -0.38,0.1 0.85,0.85 0 0 0 -0.23,0.29 1.84,1.84 0 0 0 -0.1,0.47 c 0,0.2 0,0.41 0,0.64 a 5.27,5.27 0 0 0 0,0.63 1.25,1.25 0 0 0 0.13,0.45 0.58,0.58 0 0 0 0.23,0.28 0.75,0.75 0 0 0 0.39,0.09 0.74,0.74 0 0 0 0.38,-0.1 0.72,0.72 0 0 0 0.22,-0.29 m 0.61,-1.12 a 2.51,2.51 0 0 1 -0.27,1.43 1.2,1.2 0 0 1 -1.89,0 2.64,2.64 0 0 1 -0.33,-1.4 2.64,2.64 0 0 1 0.26,-1.43 1.21,1.21 0 0 1 1.9,0 2.77,2.77 0 0 1 0.33,1.4"
         id="path27" />
      <path
         class="cls-2"
         d="m 82.37,36 a 1.83,1.83 0 0 0 0.14,-0.45 4.84,4.84 0 0 0 0.08,-0.64 4.54,4.54 0 0 0 0,-0.63 1.53,1.53 0 0 0 -0.08,-0.47 0.68,0.68 0 0 0 -0.21,-0.3 0.71,0.71 0 0 0 -0.37,-0.12 0.8,0.8 0 0 0 -0.39,0.07 0.73,0.73 0 0 0 -0.25,0.27 1.91,1.91 0 0 0 -0.15,0.46 c 0,0.19 -0.05,0.4 -0.07,0.63 a 4.57,4.57 0 0 0 0,0.63 1.34,1.34 0 0 0 0.08,0.46 0.59,0.59 0 0 0 0.2,0.3 0.64,0.64 0 0 0 0.38,0.13 0.68,0.68 0 0 0 0.39,-0.07 0.66,0.66 0 0 0 0.25,-0.27 m 0.71,-1 a 2.71,2.71 0 0 1 -0.4,1.4 1,1 0 0 1 -1,0.39 1.07,1.07 0 0 1 -0.92,-0.53 2.64,2.64 0 0 1 -0.2,-1.43 2.58,2.58 0 0 1 0.4,-1.39 1.2,1.2 0 0 1 1.89,0.13 2.78,2.78 0 0 1 0.2,1.43"
         id="path28" />
      <path
         class="cls-2"
         d="m 85.8,37.17 -1.93,-0.32 0.06,-0.36 0.74,0.12 0.39,-2.38 -0.74,-0.13 0.06,-0.32 a 1.66,1.66 0 0 0 0.32,0 1,1 0 0 0 0.28,0 l 0.19,-0.13 a 0.46,0.46 0 0 0 0.12,-0.23 l 0.37,0.06 -0.53,3.2 0.73,0.12 z"
         id="path29" />
      <path
         class="cls-2"
         d="m 90.2,37.63 a 1.52,1.52 0 0 0 0.25,-0.4 4.91,4.91 0 0 0 0.22,-0.6 5.93,5.93 0 0 0 0.17,-0.61 2.06,2.06 0 0 0 0,-0.48 A 0.65,0.65 0 0 0 90.7,35.2 0.81,0.81 0 0 0 90,35 a 0.62,0.62 0 0 0 -0.31,0.2 1.71,1.71 0 0 0 -0.26,0.41 c -0.07,0.18 -0.15,0.38 -0.22,0.59 -0.07,0.21 -0.13,0.45 -0.16,0.61 a 1.57,1.57 0 0 0 0,0.47 0.77,0.77 0 0 0 0.13,0.35 0.71,0.71 0 0 0 0.34,0.21 0.75,0.75 0 0 0 0.39,0 0.54,0.54 0 0 0 0.31,-0.2 m 0.94,-0.85 a 2.62,2.62 0 0 1 -0.73,1.27 1.06,1.06 0 0 1 -1,0.14 1,1 0 0 1 -0.76,-0.73 2.57,2.57 0 0 1 0.1,-1.47 2.51,2.51 0 0 1 0.72,-1.25 1.2,1.2 0 0 1 1.8,0.58 2.71,2.71 0 0 1 -0.15,1.43"
         id="path30" />
      <path
         class="cls-2"
         d="m 93.24,39.61 -1.79,-0.77 0.14,-0.34 0.69,0.3 1,-2.22 -0.69,-0.3 0.13,-0.3 0.31,0.11 a 0.69,0.69 0 0 0 0.27,0 l 0.22,-0.07 a 0.58,0.58 0 0 0 0.17,-0.2 L 94,36 l -1.28,3 0.67,0.29 z"
         id="path31" />
      <path
         class="cls-2"
         d="m 95.91,40.22 a 1.57,1.57 0 0 0 0.32,-0.35 4.69,4.69 0 0 0 0.34,-0.54 c 0.11,-0.22 0.21,-0.41 0.28,-0.58 a 1.39,1.39 0 0 0 0.11,-0.46 0.67,0.67 0 0 0 -0.06,-0.35 0.7,0.7 0 0 0 -0.29,-0.27 0.79,0.79 0 0 0 -0.37,-0.1 0.7,0.7 0 0 0 -0.35,0.14 1.68,1.68 0 0 0 -0.32,0.36 4.91,4.91 0 0 0 -0.33,0.53 5.79,5.79 0 0 0 -0.28,0.57 1.37,1.37 0 0 0 -0.12,0.45 0.74,0.74 0 0 0 0.06,0.37 0.81,0.81 0 0 0 0.67,0.37 0.59,0.59 0 0 0 0.34,-0.14 M 97,39.56 a 2.66,2.66 0 0 1 -1,1.11 1.08,1.08 0 0 1 -1,-0.06 1,1 0 0 1 -0.61,-0.86 3.5,3.5 0 0 1 1.37,-2.48 1.2,1.2 0 0 1 1.65,0.92 2.6,2.6 0 0 1 -0.41,1.37"
         id="path32" />
      <path
         class="cls-2"
         d="m 98.56,41.91 a 1.42,1.42 0 0 0 0.35,-0.31 q 0.18,-0.21 0.39,-0.51 a 5.3,5.3 0 0 0 0.33,-0.55 1.29,1.29 0 0 0 0.16,-0.45 0.55,0.55 0 0 0 0,-0.36 0.77,0.77 0 0 0 -0.26,-0.29 0.69,0.69 0 0 0 -0.36,-0.13 0.62,0.62 0 0 0 -0.36,0.1 1.5,1.5 0 0 0 -0.35,0.33 4.34,4.34 0 0 0 -0.38,0.5 4.93,4.93 0 0 0 -0.34,0.54 1.56,1.56 0 0 0 -0.16,0.44 0.62,0.62 0 0 0 0,0.36 0.66,0.66 0 0 0 0.26,0.3 0.74,0.74 0 0 0 0.37,0.14 0.6,0.6 0 0 0 0.35,-0.11 m 1.14,-0.55 a 2.57,2.57 0 0 1 -1,1 1.06,1.06 0 0 1 -1,-0.16 1.05,1.05 0 0 1 -0.53,-0.91 3.47,3.47 0 0 1 1.52,-2.29 1.05,1.05 0 0 1 1,0.15 1.07,1.07 0 0 1 0.52,0.92 2.59,2.59 0 0 1 -0.55,1.33"
         id="path33" />
      <path
         class="cls-2"
         d="m 101,43.84 a 1.54,1.54 0 0 0 0.38,-0.28 c 0.13,-0.13 0.27,-0.28 0.43,-0.47 a 5.85,5.85 0 0 0 0.39,-0.51 2.29,2.29 0 0 0 0.2,-0.43 0.77,0.77 0 0 0 0,-0.37 0.81,0.81 0 0 0 -0.58,-0.48 0.66,0.66 0 0 0 -0.36,0.07 1.77,1.77 0 0 0 -0.39,0.29 5,5 0 0 0 -0.42,0.47 c -0.16,0.19 -0.29,0.36 -0.39,0.5 a 1.6,1.6 0 0 0 -0.2,0.42 0.67,0.67 0 0 0 0,0.37 0.69,0.69 0 0 0 0.24,0.32 0.61,0.61 0 0 0 0.35,0.17 0.6,0.6 0 0 0 0.36,-0.07 m 1.19,-0.44 a 2.54,2.54 0 0 1 -1.14,0.9 1.2,1.2 0 0 1 -1.45,-1.21 2.6,2.6 0 0 1 0.67,-1.28 2.67,2.67 0 0 1 1.13,-0.9 1.07,1.07 0 0 1 1,0.25 1,1 0 0 1 0.44,1 2.69,2.69 0 0 1 -0.67,1.28"
         id="path34" />
      <path
         class="cls-2"
         d="m 103.11,46.79 -1.38,-1.38 0.26,-0.26 0.54,0.53 1.7,-1.7 -0.53,-0.53 0.24,-0.24 a 1.7,1.7 0 0 0 0.24,0.22 1,1 0 0 0 0.24,0.13 h 0.24 l 0.22,-0.13 0.27,0.27 -2.3,2.3 0.52,0.52 z"
         id="path35" />
      <path
         class="cls-2"
         d="m 105.38,48.36 a 1.55,1.55 0 0 0 0.43,-0.21 5.54,5.54 0 0 0 0.51,-0.38 5.35,5.35 0 0 0 0.47,-0.43 1.47,1.47 0 0 0 0.28,-0.38 0.61,0.61 0 0 0 0.07,-0.36 0.76,0.76 0 0 0 -0.48,-0.58 0.58,0.58 0 0 0 -0.37,0 1.4,1.4 0 0 0 -0.43,0.21 5.09,5.09 0 0 0 -0.5,0.38 4.34,4.34 0 0 0 -0.47,0.42 1.38,1.38 0 0 0 -0.28,0.38 0.59,0.59 0 0 0 -0.08,0.36 0.73,0.73 0 0 0 0.17,0.36 0.72,0.72 0 0 0 0.31,0.23 0.59,0.59 0 0 0 0.37,0 m 1.25,-0.21 a 2.62,2.62 0 0 1 -1.29,0.67 1.21,1.21 0 0 1 -1.2,-1.46 2.67,2.67 0 0 1 0.9,-1.13 2.62,2.62 0 0 1 1.29,-0.67 1.2,1.2 0 0 1 1.2,1.46 2.61,2.61 0 0 1 -0.9,1.13"
         id="path36" />
      <path
         class="cls-2"
         d="m 106.89,51.67 -1.09,-1.61 0.3,-0.21 0.42,0.62 2,-1.35 -0.42,-0.62 0.27,-0.19 0.21,0.26 0.21,0.18 0.22,0.06 a 0.52,0.52 0 0 0 0.25,-0.08 l 0.21,0.31 -2.69,1.82 0.41,0.61 z"
         id="path37" />
      <path
         class="cls-2"
         d="m 109.58,55.18 a 1.69,1.69 0 0 0 0.46,-0.09 c 0.17,-0.06 0.37,-0.15 0.59,-0.25 a 5.4,5.4 0 0 0 0.56,-0.31 1.46,1.46 0 0 0 0.37,-0.3 0.81,0.81 0 0 0 0.15,-0.33 0.67,0.67 0 0 0 -0.69,-0.77 1.65,1.65 0 0 0 -0.47,0.1 l -0.58,0.25 c -0.23,0.11 -0.41,0.21 -0.56,0.3 a 1.31,1.31 0 0 0 -0.36,0.3 0.65,0.65 0 0 0 -0.16,0.32 0.68,0.68 0 0 0 0.08,0.4 0.84,0.84 0 0 0 0.25,0.3 0.6,0.6 0 0 0 0.36,0.08 m 1.26,0.1 a 2.6,2.6 0 0 1 -1.41,0.34 1.07,1.07 0 0 1 -0.82,-0.65 1,1 0 0 1 0,-1 2.66,2.66 0 0 1 1.15,-0.88 2.61,2.61 0 0 1 1.41,-0.35 1.07,1.07 0 0 1 0.82,0.65 1.05,1.05 0 0 1 0,1.06 2.62,2.62 0 0 1 -1.14,0.88"
         id="path38" />
      <path
         class="cls-2"
         d="m 110.24,58.76 -0.67,-1.83 0.34,-0.13 0.26,0.7 2.27,-0.83 -0.26,-0.71 0.31,-0.11 a 2.48,2.48 0 0 0 0.13,0.3 1.14,1.14 0 0 0 0.16,0.22 l 0.21,0.11 a 0.48,0.48 0 0 0 0.26,0 l 0.13,0.36 -3,1.12 0.26,0.69 z"
         id="path39" />
      <path
         class="cls-2"
         d="m 111.63,61.1 a 1.56,1.56 0 0 0 0.48,0 3.64,3.64 0 0 0 0.62,-0.13 4.46,4.46 0 0 0 0.61,-0.19 1.65,1.65 0 0 0 0.42,-0.23 0.69,0.69 0 0 0 0.21,-0.3 0.61,0.61 0 0 0 0,-0.38 0.66,0.66 0 0 0 -0.19,-0.34 0.72,0.72 0 0 0 -0.34,-0.16 1.57,1.57 0 0 0 -0.48,0 l -0.62,0.13 -0.6,0.19 a 1.46,1.46 0 0 0 -0.41,0.23 0.61,0.61 0 0 0 -0.22,0.29 0.68,0.68 0 0 0 0,0.4 0.66,0.66 0 0 0 0.19,0.34 0.63,0.63 0 0 0 0.33,0.15 m 1.23,0.34 a 2.77,2.77 0 0 1 -1.46,0.07 1,1 0 0 1 -0.67,-0.8 1,1 0 0 1 0.2,-1 2.67,2.67 0 0 1 1.29,-0.65 2.63,2.63 0 0 1 1.45,-0.07 1.2,1.2 0 0 1 0.47,1.83 2.63,2.63 0 0 1 -1.28,0.65"
         id="path40" />
      <path
         class="cls-2"
         d="m 111.61,64.73 -0.32,-1.93 0.37,-0.06 0.12,0.74 2.38,-0.39 -0.12,-0.74 0.32,-0.05 c 0,0.1 0,0.21 0.08,0.32 a 0.83,0.83 0 0 0 0.12,0.25 l 0.18,0.15 a 0.52,0.52 0 0 0 0.26,0 l 0.06,0.37 -3.21,0.52 0.12,0.73 z"
         id="path41" />
      <path
         class="cls-2"
         d="m 112.53,67.3 a 1.64,1.64 0 0 0 0.47,0.09 4.89,4.89 0 0 0 0.64,0 5.21,5.21 0 0 0 0.64,-0.07 1.49,1.49 0 0 0 0.45,-0.15 0.63,0.63 0 0 0 0.26,-0.25 0.65,0.65 0 0 0 0.07,-0.38 0.71,0.71 0 0 0 -0.12,-0.37 0.68,0.68 0 0 0 -0.3,-0.21 1.26,1.26 0 0 0 -0.48,-0.08 4.5,4.5 0 0 0 -0.63,0 c -0.25,0 -0.46,0 -0.63,0.07 a 1.89,1.89 0 0 0 -0.44,0.14 0.55,0.55 0 0 0 -0.27,0.25 0.67,0.67 0 0 0 -0.08,0.39 0.68,0.68 0 0 0 0.12,0.37 0.55,0.55 0 0 0 0.3,0.21 m 1.14,0.56 a 2.59,2.59 0 0 1 -1.44,-0.2 1.2,1.2 0 0 1 -0.12,-1.89 2.59,2.59 0 0 1 1.39,-0.39 2.63,2.63 0 0 1 1.43,0.2 1.06,1.06 0 0 1 0.53,0.91 1.05,1.05 0 0 1 -0.4,1 2.65,2.65 0 0 1 -1.39,0.39"
         id="path42" />
      <path
         class="cls-2"
         d="m 111.83,70.88 v -1.95 h 0.36 v 0.75 l 2.42,0.07 V 69 H 115 c 0,0.1 0,0.21 0,0.32 a 1,1 0 0 0 0.07,0.27 l 0.15,0.18 a 0.53,0.53 0 0 0 0.25,0.08 v 0.37 l -3.25,-0.08 v 0.73 z"
         id="path43" />
      <path
         class="cls-2"
         d="m 112.26,73.57 a 1.62,1.62 0 0 0 0.44,0.17 6,6 0 0 0 0.63,0.1 5.42,5.42 0 0 0 0.64,0 1.63,1.63 0 0 0 0.47,-0.06 0.67,0.67 0 0 0 0.31,-0.2 0.73,0.73 0 0 0 0.13,-0.36 0.7,0.7 0 0 0 0,-0.39 0.62,0.62 0 0 0 -0.25,-0.26 1.37,1.37 0 0 0 -0.45,-0.17 c -0.19,0 -0.4,-0.08 -0.63,-0.11 -0.23,-0.03 -0.45,0 -0.62,0 a 1.73,1.73 0 0 0 -0.47,0.06 0.61,0.61 0 0 0 -0.31,0.19 0.69,0.69 0 0 0 -0.15,0.38 0.66,0.66 0 0 0 0,0.38 0.61,0.61 0 0 0 0.26,0.27 m 1,0.76 a 2.64,2.64 0 0 1 -1.38,-0.47 1.07,1.07 0 0 1 -0.33,-1 1,1 0 0 1 0.57,-0.89 2.58,2.58 0 0 1 1.43,-0.12 2.56,2.56 0 0 1 1.38,0.47 1,1 0 0 1 0.34,1 1,1 0 0 1 -0.58,0.88 2.59,2.59 0 0 1 -1.43,0.13"
         id="path44" />
      <path
         class="cls-2"
         d="m 111.67,76.68 a 1.91,1.91 0 0 0 0.43,0.21 4.81,4.81 0 0 0 0.61,0.16 4.67,4.67 0 0 0 0.63,0.11 1.48,1.48 0 0 0 0.48,0 0.57,0.57 0 0 0 0.32,-0.16 0.68,0.68 0 0 0 0.17,-0.35 0.64,0.64 0 0 0 0,-0.39 0.62,0.62 0 0 0 -0.23,-0.29 1.32,1.32 0 0 0 -0.43,-0.21 5.92,5.92 0 0 0 -0.61,-0.16 4.83,4.83 0 0 0 -0.62,-0.11 1.46,1.46 0 0 0 -0.47,0 0.73,0.73 0 0 0 -0.33,0.16 0.76,0.76 0 0 0 -0.18,0.36 0.72,0.72 0 0 0 0,0.39 0.63,0.63 0 0 0 0.23,0.29 m 0.94,0.85 a 2.5,2.5 0 0 1 -1.33,-0.6 1.06,1.06 0 0 1 -0.24,-1 1,1 0 0 1 0.65,-0.82 2.61,2.61 0 0 1 1.45,0 2.71,2.71 0 0 1 1.32,0.6 1,1 0 0 1 0.24,1 1,1 0 0 1 -0.65,0.82 2.58,2.58 0 0 1 -1.44,0"
         id="path45" />
      <path
         class="cls-2"
         d="m 110.19,81.32 a 1.92,1.92 0 0 0 0.39,0.27 c 0.16,0.08 0.36,0.16 0.59,0.25 a 4.28,4.28 0 0 0 0.61,0.2 1.35,1.35 0 0 0 0.47,0.06 0.63,0.63 0 0 0 0.34,-0.12 0.72,0.72 0 0 0 0.23,-0.32 0.74,0.74 0 0 0 0,-0.38 0.64,0.64 0 0 0 -0.18,-0.33 1.72,1.72 0 0 0 -0.4,-0.27 c -0.17,-0.08 -0.36,-0.17 -0.58,-0.25 -0.22,-0.08 -0.43,-0.15 -0.6,-0.2 a 1.51,1.51 0 0 0 -0.46,0 0.57,0.57 0 0 0 -0.58,0.43 0.68,0.68 0 0 0 0,0.39 0.61,0.61 0 0 0 0.18,0.32 m 0.8,1 a 2.6,2.6 0 0 1 -1.22,-0.79 1.06,1.06 0 0 1 -0.09,-1 1,1 0 0 1 0.77,-0.72 3.42,3.42 0 0 1 2.64,1 1.19,1.19 0 0 1 -0.67,1.76 A 2.56,2.56 0 0 1 111,82.3"
         id="path46" />
      <path
         class="cls-2"
         d="m 108.06,84.26 0.86,-1.75 0.33,0.16 -0.33,0.67 2.16,1.07 0.34,-0.67 0.29,0.15 q -0.06,0.14 -0.12,0.3 a 0.6,0.6 0 0 0 0,0.27 l 0.06,0.23 a 0.46,0.46 0 0 0 0.19,0.17 l -0.17,0.34 -2.91,-1.44 -0.32,0.66 z"
         id="path47" />
      <path
         class="cls-2"
         d="m 107.32,86.88 a 1.5,1.5 0 0 0 0.33,0.34 c 0.14,0.11 0.31,0.23 0.52,0.37 0.21,0.14 0.4,0.23 0.56,0.3 a 1.69,1.69 0 0 0 0.45,0.15 0.69,0.69 0 0 0 0.36,-0.05 0.66,0.66 0 0 0 0.28,-0.27 0.7,0.7 0 0 0 0.12,-0.37 0.59,0.59 0 0 0 -0.12,-0.35 1.21,1.21 0 0 0 -0.34,-0.34 4.68,4.68 0 0 0 -0.52,-0.36 4.76,4.76 0 0 0 -0.55,-0.31 1.6,1.6 0 0 0 -0.44,-0.14 0.65,0.65 0 0 0 -0.37,0 0.84,0.84 0 0 0 -0.4,0.65 0.59,0.59 0 0 0 0.12,0.34 m 0.6,1.12 a 2.6,2.6 0 0 1 -1,-1 1.06,1.06 0 0 1 0.11,-1 1,1 0 0 1 0.88,-0.56 2.65,2.65 0 0 1 1.36,0.49 2.68,2.68 0 0 1 1,1 1.2,1.2 0 0 1 -1,1.6 2.69,2.69 0 0 1 -1.35,-0.49"
         id="path48" />
      <path
         class="cls-2"
         d="m 105.49,89.44 a 1.63,1.63 0 0 0 0.3,0.37 4.77,4.77 0 0 0 0.49,0.41 c 0.19,0.15 0.37,0.26 0.52,0.36 a 1.7,1.7 0 0 0 0.44,0.18 0.62,0.62 0 0 0 0.36,0 0.75,0.75 0 0 0 0.31,-0.24 0.73,0.73 0 0 0 0.15,-0.36 0.61,0.61 0 0 0 -0.09,-0.36 1.35,1.35 0 0 0 -0.3,-0.37 4.24,4.24 0 0 0 -0.49,-0.41 l -0.51,-0.36 a 1.37,1.37 0 0 0 -0.44,-0.18 0.55,0.55 0 0 0 -0.36,0 0.65,0.65 0 0 0 -0.31,0.25 0.64,0.64 0 0 0 -0.16,0.36 0.61,0.61 0 0 0 0.09,0.36 m 0.49,1.17 a 2.67,2.67 0 0 1 -1,-1.1 1.05,1.05 0 0 1 0.21,-1 1.06,1.06 0 0 1 0.93,-0.48 3.51,3.51 0 0 1 2.26,1.72 1.06,1.06 0 0 1 -0.21,1 1,1 0 0 1 -0.94,0.47 2.63,2.63 0 0 1 -1.3,-0.61"
         id="path49" />
      <path
         class="cls-2"
         d="m 102.61,91.66 1.32,-1.43 0.27,0.25 -0.51,0.55 1.78,1.64 0.51,-0.56 0.24,0.23 a 1.69,1.69 0 0 0 -0.2,0.25 0.86,0.86 0 0 0 -0.13,0.25 v 0.23 l 0.13,0.22 -0.25,0.28 -2.39,-2.2 -0.5,0.54 z"
         id="path50" />
      <path
         class="cls-2"
         d="m 100.37,93.75 1.44,-1.31 0.25,0.27 -0.56,0.51 1.62,1.78 0.56,-0.5 0.22,0.24 a 2.66,2.66 0 0 0 -0.23,0.24 1.45,1.45 0 0 0 -0.15,0.23 v 0.23 l 0.11,0.24 -0.28,0.25 -2.17,-2.41 -0.55,0.49 z"
         id="path51" />
      <path
         class="cls-2"
         d="m 97.94,95.61 1.56,-1.16 0.22,0.29 -0.6,0.45 1.44,1.94 0.6,-0.45 0.2,0.27 -0.25,0.21 -0.17,0.22 v 0.22 a 0.45,0.45 0 0 0 0.09,0.25 l -0.3,0.22 -1.93,-2.6 -0.6,0.44 z"
         id="path52" />
      <path
         class="cls-2"
         d="m 95.31,97.25 1.67,-1 0.19,0.31 -0.64,0.39 1.25,2.05 0.64,-0.39 0.17,0.29 a 1.48,1.48 0 0 0 -0.27,0.19 0.86,0.86 0 0 0 -0.19,0.2 l -0.07,0.22 a 0.53,0.53 0 0 0 0.07,0.25 l -0.32,0.2 -1.68,-2.78 -0.63,0.38 z"
         id="path53" />
    </g>
  </g>
  <metadata
     id="metadata59">
    <rdf:RDF>
      <cc:Work
         rdf:about="">
        <dc:title>tree_logo_nega</dc:title>
      </cc:Work>
    </rdf:RDF>
  </metadata>
</svg>
